<svg xmlns="http://www.w3.org/2000/svg" viewBox="0 0 256 256" width="256" height="256">
<g transform="translate(26 10) scale(6.4)"><path d="M16 3C8.8 3 3 8.2 3 14.7c0 3.4 1.6 6.4 4.2 8.6L6 29l6.2-3.1c1.2.3 2.5.5 3.8.5 7.2 0 13-5.2 13-11.7S23.2 3 16 3Z" fill="#136357" transform="translate(.6 .9)"/><path d="M16 3C8.8 3 3 8.2 3 14.7c0 3.4 1.6 6.4 4.2 8.6L6 29l6.2-3.1c1.2.3 2.5.5 3.8.5 7.2 0 13-5.2 13-11.7S23.2 3 16 3Z" fill="#1f8a7e" stroke="#2b1f24" stroke-width=".8" stroke-linejoin="round"/></g>
<path d="M60 70q10-20 34-26" fill="none" stroke="#fff" stroke-width="7" stroke-linecap="round" opacity=".45"/>
<ellipse cx="96" cy="112" rx="11" ry="14" fill="#2b1f24"/><ellipse cx="152" cy="112" rx="11" ry="14" fill="#2b1f24"/><circle cx="100" cy="106" r="4" fill="#fff"/><circle cx="156" cy="106" r="4" fill="#fff"/><path d="M104 140q20 20 40 0" fill="none" stroke="#2b1f24" stroke-width="7" stroke-linecap="round"/><g transform="translate(184 118)"><path d="M6 22h12v40H6z" fill="#f7c68a" stroke="#2b1f24" stroke-width="5" stroke-linejoin="round"/><path d="M18 24l14-22c6-6 14-2 12 6l-4 14h16c8 0 10 8 6 12 4 4 2 10-2 12 2 4 0 10-6 10 2 6-2 10-8 10H18Z" fill="#f7c68a" stroke="#2b1f24" stroke-width="5" stroke-linejoin="round"/></g><text x="128" y="236" text-anchor="middle" font-family="'Plus Jakarta Sans','Segoe UI',Arial,sans-serif" font-size="36" font-weight="800" fill="#fff" stroke="#2b1f24" stroke-width="9" paint-order="stroke" stroke-linejoin="round">OK!</text>
</svg>